# xmcd CD database file
#
# Track frame offsets:
#	150
#	16206
#	29283
#	40719
#	55450
#	72922
#	85757
#	101311
#	117430
#	133042
#	146187
#	161752
#	183486
#	199149
#	214842
#	228534
#	244841
#	256829
#	272226
#	286246
#
# Disc length: 4021 seconds
#
# Revision: 0
# Processed by: cddbd v1.5.2PL0 Copyright (c) Steve Scherf et al.
# Submitted via: NeoAudio 9.9.9
#
DISCID=280fb314
DTITLE=Lester Young - Genius of the Tenor Saxophone
DYEAR=1900
DGENRE=Jazz
TTITLE0=Another Mambo
TTITLE1=Let's Fall in Love
TTITLE2=Lester Swings
TTITLE3=It All Depends on You
TTITLE4=Back to the Land
TTITLE5=A Foggy Day
TTITLE6=On the Sunny Side of the Street
TTITLE7=Pete's Cafe
TTITLE8=There Will Never Be Another You
TTITLE9=Polka Dots and Moon Beams
TTITLE10=Tenderly
TTITLE11=The Man I Love
TTITLE12=Neenah
TTITLE13=These Foolish Things
TTITLE14=Jumpin' at the Woodside
TTITLE15=Stardust
TTITLE16=Little Pee's Blues
TTITLE17=I Can't Give You Anything But Love
TTITLE18=Encore
TTITLE19=Lady Be Good
EXTD=
EXTT0=
EXTT1=
EXTT2=
EXTT3=
EXTT4=
EXTT5=
EXTT6=
EXTT7=
EXTT8=
EXTT9=
EXTT10=
EXTT11=
EXTT12=
EXTT13=
EXTT14=
EXTT15=
EXTT16=
EXTT17=
EXTT18=
EXTT19=
PLAYORDER=
